<svg xmlns="http://www.w3.org/2000/svg" xmlns:xlink="http://www.w3.org/1999/xlink" width="188" zoomAndPan="magnify" viewBox="0 0 141.75 141.750002" height="188" preserveAspectRatio="xMidYMid meet" version="1.0"><defs><clipPath id="bf87e35af4"><path d="M 16 12 L 123 12 L 123 124 L 16 124 Z M 16 12 " clip-rule="nonzero"/></clipPath><clipPath id="6ef2f29dd5"><path d="M 0 49.101562 L 56.539062 -3.339844 L 145.128906 92.171875 L 88.589844 144.613281 Z M 0 49.101562 " clip-rule="nonzero"/></clipPath><clipPath id="f93a093df0"><path d="M 0 49.101562 L 56.539062 -3.339844 L 145.128906 92.171875 L 88.589844 144.613281 Z M 0 49.101562 " clip-rule="nonzero"/></clipPath><clipPath id="9085ff0513"><path d="M 0 49.101562 L 56.539062 -3.339844 L 145.128906 92.171875 L 88.589844 144.613281 Z M 0 49.101562 " clip-rule="nonzero"/></clipPath><clipPath id="0bc6f95fda"><path d="M 15 12 L 93 12 L 93 90 L 15 90 Z M 15 12 " clip-rule="nonzero"/></clipPath><clipPath id="a00c195d45"><path d="M 0 49.101562 L 56.539062 -3.339844 L 145.128906 92.171875 L 88.589844 144.613281 Z M 0 49.101562 " clip-rule="nonzero"/></clipPath><clipPath id="76c608edf8"><path d="M 0 49.101562 L 56.539062 -3.339844 L 145.128906 92.171875 L 88.589844 144.613281 Z M 0 49.101562 " clip-rule="nonzero"/></clipPath><clipPath id="6591ecfbbe"><path d="M 0 49.101562 L 56.539062 -3.339844 L 145.128906 92.171875 L 88.589844 144.613281 Z M 0 49.101562 " clip-rule="nonzero"/></clipPath><clipPath id="cfa09864d4"><path d="M 27 30 L 51 30 L 51 78 L 27 78 Z M 27 30 " clip-rule="nonzero"/></clipPath><clipPath id="89cf943aeb"><path d="M 0 49.101562 L 56.539062 -3.339844 L 145.128906 92.171875 L 88.589844 144.613281 Z M 0 49.101562 " clip-rule="nonzero"/></clipPath><clipPath id="1091653c53"><path d="M 0 49.101562 L 56.539062 -3.339844 L 145.128906 92.171875 L 88.589844 144.613281 Z M 0 49.101562 " clip-rule="nonzero"/></clipPath><clipPath id="ffc94fef9e"><path d="M 0 49.101562 L 56.539062 -3.339844 L 145.128906 92.171875 L 88.589844 144.613281 Z M 0 49.101562 " clip-rule="nonzero"/></clipPath><clipPath id="5ab6d680e3"><path d="M 22 18 L 122 18 L 122 122 L 22 122 Z M 22 18 " clip-rule="nonzero"/></clipPath><clipPath id="61a494e236"><path d="M 0 49.101562 L 56.539062 -3.339844 L 145.128906 92.171875 L 88.589844 144.613281 Z M 0 49.101562 " clip-rule="nonzero"/></clipPath><clipPath id="2ae8a58d34"><path d="M 0 49.101562 L 56.539062 -3.339844 L 145.128906 92.171875 L 88.589844 144.613281 Z M 0 49.101562 " clip-rule="nonzero"/></clipPath><clipPath id="f1a181bbfe"><path d="M 0 49.101562 L 56.539062 -3.339844 L 145.128906 92.171875 L 88.589844 144.613281 Z M 0 49.101562 " clip-rule="nonzero"/></clipPath></defs><g clip-path="url(#bf87e35af4)"><g clip-path="url(#6ef2f29dd5)"><g clip-path="url(#f93a093df0)"><g clip-path="url(#9085ff0513)"><path fill="#05938f" d="M 28.453125 23.089844 C 13.011719 37.414062 12.082031 61.609375 26.378906 77.023438 C 32.894531 84.050781 41.746094 88.335938 51.300781 89.089844 C 60.796875 89.839844 70.160156 87.050781 77.671875 81.242188 L 77.875 81.085938 L 78.0625 81.289062 C 77.992188 81.347656 77.917969 81.40625 77.84375 81.464844 L 80.039062 83.832031 C 80.113281 83.773438 80.1875 83.714844 80.261719 83.65625 L 84.585938 88.320312 L 84.4375 88.457031 C 84.417969 88.476562 84.402344 88.496094 84.382812 88.515625 C 83.269531 89.597656 83.074219 91.300781 83.875 92.597656 L 84.085938 92.402344 C 84.09375 92.417969 84.101562 92.433594 84.113281 92.449219 L 84.230469 92.644531 L 84.019531 92.839844 C 83.964844 92.894531 83.960938 92.984375 84.011719 93.039062 C 84.0625 93.09375 84.144531 93.097656 84.203125 93.050781 L 84.417969 92.875 L 84.585938 93.078125 L 84.402344 93.25 C 84.394531 93.257812 84.386719 93.261719 84.378906 93.269531 L 107.121094 121.339844 C 107.140625 121.296875 107.171875 121.253906 107.210938 121.21875 L 107.308594 121.128906 L 107.449219 121.300781 L 107.371094 121.460938 C 107.34375 121.515625 107.351562 121.578125 107.390625 121.617188 C 107.425781 121.65625 107.476562 121.671875 107.527344 121.65625 L 107.703125 121.613281 L 107.835938 121.777344 L 107.777344 121.832031 C 107.726562 121.878906 107.664062 121.910156 107.597656 121.929688 L 107.722656 122.082031 C 108.917969 123.558594 111.117188 123.714844 112.515625 122.417969 L 121.191406 114.371094 C 122.589844 113.074219 122.601562 110.867188 121.214844 109.5625 L 121.074219 109.429688 C 121.050781 109.492188 121.015625 109.554688 120.960938 109.601562 L 120.90625 109.65625 L 120.75 109.507812 L 120.808594 109.339844 C 120.824219 109.289062 120.8125 109.238281 120.78125 109.203125 C 120.742188 109.160156 120.679688 109.144531 120.625 109.167969 L 120.460938 109.234375 L 120.296875 109.078125 L 120.394531 108.988281 C 120.433594 108.953125 120.476562 108.925781 120.523438 108.910156 L 94.238281 84.125 C 94.230469 84.128906 94.226562 84.136719 94.21875 84.144531 L 94.035156 84.316406 L 93.839844 84.136719 L 94.035156 83.933594 C 94.085938 83.878906 94.085938 83.796875 94.035156 83.742188 C 93.984375 83.6875 93.894531 83.683594 93.839844 83.734375 L 93.628906 83.929688 L 93.441406 83.796875 C 93.425781 83.785156 93.410156 83.777344 93.394531 83.765625 L 93.605469 83.570312 C 92.375 82.675781 90.660156 82.742188 89.496094 83.773438 C 89.476562 83.789062 89.457031 83.804688 89.4375 83.824219 L 89.289062 83.960938 L 84.960938 79.296875 C 85.023438 79.226562 85.089844 79.160156 85.152344 79.089844 L 82.957031 76.722656 C 82.894531 76.789062 82.828125 76.859375 82.765625 76.929688 L 82.578125 76.726562 L 82.75 76.535156 C 89.105469 69.480469 92.589844 60.351562 92.554688 50.824219 C 92.519531 41.242188 88.910156 32.09375 82.394531 25.070312 C 68.09375 9.652344 43.898438 8.765625 28.453125 23.089844 Z M 74.902344 73.164062 C 62.683594 84.496094 43.542969 83.792969 32.230469 71.597656 C 20.917969 59.402344 21.652344 40.261719 33.871094 28.929688 C 46.089844 17.597656 65.230469 18.300781 76.542969 30.496094 C 87.855469 42.691406 87.117188 61.832031 74.902344 73.164062 Z M 48.828125 74.027344 C 49.652344 74.226562 50.160156 75.054688 49.964844 75.878906 C 49.890625 76.175781 49.738281 76.441406 49.515625 76.644531 C 49.136719 76.996094 48.609375 77.136719 48.109375 77.015625 C 45.5625 76.40625 43.132812 75.433594 40.878906 74.117188 C 40.148438 73.6875 39.902344 72.746094 40.332031 72.015625 C 40.410156 71.882812 40.503906 71.765625 40.613281 71.664062 C 41.105469 71.207031 41.855469 71.125 42.433594 71.460938 C 44.425781 72.625 46.578125 73.488281 48.828125 74.027344 Z M 38.414062 31.5625 C 38.988281 32.183594 38.949219 33.160156 38.328125 33.734375 C 35.054688 36.773438 32.714844 40.648438 31.5625 44.9375 C 29.441406 52.847656 31.488281 61.144531 37.042969 67.132812 C 37.621094 67.753906 37.582031 68.726562 36.960938 69.304688 C 36.339844 69.878906 35.363281 69.84375 34.789062 69.222656 C 28.511719 62.457031 26.199219 53.082031 28.59375 44.148438 C 29.894531 39.296875 32.539062 34.917969 36.242188 31.484375 C 36.863281 30.90625 37.835938 30.945312 38.414062 31.5625 Z M 38.414062 31.5625 " fill-opacity="1" fill-rule="nonzero"/></g></g></g></g><g clip-path="url(#0bc6f95fda)"><g clip-path="url(#a00c195d45)"><g clip-path="url(#76c608edf8)"><g clip-path="url(#6591ecfbbe)"><path fill="#f96340" d="M 28.265625 22.882812 C 12.683594 37.335938 11.746094 61.660156 26.175781 77.214844 C 39.800781 91.90625 62.265625 93.515625 77.84375 81.464844 C 78.757812 80.757812 79.644531 80.007812 80.507812 79.207031 C 81.371094 78.410156 82.183594 77.578125 82.957031 76.722656 C 96.144531 62.089844 96.226562 39.570312 82.597656 24.878906 C 68.171875 9.324219 43.847656 8.433594 28.265625 22.882812 Z M 76.242188 74.609375 C 63.207031 86.703125 42.851562 85.957031 30.78125 72.941406 C 18.707031 59.929688 19.492188 39.574219 32.53125 27.480469 C 45.566406 15.390625 65.921875 16.136719 77.992188 29.152344 C 90.066406 42.164062 89.28125 62.519531 76.242188 74.609375 Z M 76.242188 74.609375 " fill-opacity="1" fill-rule="nonzero"/></g></g></g></g><g clip-path="url(#cfa09864d4)"><g clip-path="url(#89cf943aeb)"><g clip-path="url(#1091653c53)"><g clip-path="url(#ffc94fef9e)"><path fill="#97e7dc" d="M 48.894531 73.757812 C 49.871094 73.988281 50.46875 74.96875 50.234375 75.945312 C 50.148438 76.304688 49.957031 76.617188 49.703125 76.851562 C 49.273438 77.25 48.660156 77.433594 48.042969 77.289062 C 45.472656 76.671875 43.015625 75.6875 40.738281 74.355469 C 39.875 73.851562 39.585938 72.738281 40.089844 71.875 C 40.597656 71.007812 41.710938 70.714844 42.578125 71.222656 C 44.542969 72.371094 46.667969 73.222656 48.894531 73.757812 Z M 36.050781 31.28125 C 32.3125 34.75 29.640625 39.171875 28.324219 44.074219 C 25.902344 53.105469 28.242188 62.578125 34.585938 69.414062 C 35.265625 70.148438 36.414062 70.191406 37.148438 69.507812 C 37.886719 68.824219 37.929688 67.675781 37.25 66.941406 C 31.761719 61.023438 29.734375 52.828125 31.832031 45.011719 C 32.96875 40.769531 35.28125 36.941406 38.519531 33.941406 C 39.253906 33.257812 39.300781 32.109375 38.617188 31.375 C 37.9375 30.640625 36.789062 30.597656 36.050781 31.28125 Z M 36.050781 31.28125 " fill-opacity="1" fill-rule="nonzero"/></g></g></g></g><g clip-path="url(#5ab6d680e3)"><g clip-path="url(#61a494e236)"><g clip-path="url(#2ae8a58d34)"><g clip-path="url(#f1a181bbfe)"><path fill="#facb01" d="M 86.183594 90.453125 L 91.296875 85.714844 L 93.605469 83.570312 L 93.648438 83.53125 C 93.820312 83.375 94.082031 83.382812 94.242188 83.550781 C 94.390625 83.714844 94.386719 83.964844 94.238281 84.125 C 94.230469 84.128906 94.226562 84.136719 94.21875 84.144531 L 91.867188 86.328125 L 86.753906 91.070312 L 84.402344 93.25 C 84.394531 93.257812 84.386719 93.261719 84.378906 93.269531 C 84.207031 93.40625 83.960938 93.390625 83.808594 93.230469 C 83.652344 93.058594 83.660156 92.792969 83.832031 92.636719 L 83.875 92.597656 Z M 120.523438 108.910156 C 120.476562 108.925781 120.433594 108.953125 120.394531 108.988281 L 107.210938 121.21875 C 107.171875 121.253906 107.140625 121.296875 107.121094 121.339844 C 107.046875 121.492188 107.066406 121.679688 107.1875 121.808594 C 107.292969 121.925781 107.453125 121.964844 107.597656 121.929688 C 107.664062 121.910156 107.726562 121.878906 107.777344 121.832031 L 120.960938 109.601562 C 121.015625 109.554688 121.050781 109.492188 121.074219 109.429688 C 121.121094 109.289062 121.09375 109.128906 120.984375 109.011719 C 120.863281 108.878906 120.679688 108.847656 120.523438 108.910156 Z M 77.992188 29.152344 C 90.066406 42.164062 89.28125 62.519531 76.242188 74.609375 C 63.207031 86.703125 42.851562 85.957031 30.78125 72.941406 C 18.707031 59.929688 19.492188 39.574219 32.53125 27.480469 C 45.566406 15.390625 65.921875 16.136719 77.992188 29.152344 Z M 76.339844 30.683594 C 65.113281 18.582031 46.183594 17.886719 34.0625 29.132812 C 21.9375 40.378906 21.207031 59.304688 32.433594 71.40625 C 43.660156 83.511719 62.585938 84.207031 74.710938 72.960938 C 86.835938 61.714844 87.5625 42.789062 76.339844 30.683594 Z M 89.496094 83.773438 L 85.152344 79.089844 C 84.378906 79.945312 83.566406 80.777344 82.703125 81.578125 C 81.84375 82.375 80.953125 83.125 80.039062 83.832031 L 84.382812 88.515625 C 84.402344 88.496094 84.417969 88.476562 84.4375 88.457031 L 89.4375 83.824219 C 89.457031 83.804688 89.476562 83.789062 89.496094 83.773438 Z M 89.496094 83.773438 " fill-opacity="1" fill-rule="nonzero"/></g></g></g></g></svg>